<?xml version="1.0" encoding="utf-8"?>
<!-- Generator: Adobe Illustrator 21.0.0, SVG Export Plug-In . SVG Version: 6.00 Build 0)  -->
<svg version="1.1" id="Layer_1" xmlns="http://www.w3.org/2000/svg" xmlns:xlink="http://www.w3.org/1999/xlink" x="0px" y="0px"
	 viewBox="0 0 841.9 300" style="enable-background:new 0 0 841.9 300;" xml:space="preserve">
<style type="text/css">
	.st0{fill:#FFFFFF;}
</style>
<g>
	<path class="st0" d="M180.3,92.8v118.8L299,194.3V75.6L180.3,92.8z M226.3,164.8c0,3.7-3,6.6-6.6,6.6s-6.6-3-6.6-6.6s3-6.6,6.6-6.6
		c1.7,0,3.3,0.7,4.5,1.8v-20.7l-13.5,11.8v29.4c0,3.7-3,6.6-6.6,6.6c-3.7,0-6.6-3-6.6-6.6s3-6.6,6.6-6.6c1.7,0,3.3,0.7,4.5,1.8
		v-30.6l15.6-15.6h2.2V164.8z M252,129.3c0,3.4-2.7,6.1-6.1,6.1c-3.4,0-6.1-2.8-6.1-6.1c0-3.4,2.8-6.1,6.1-6.1c0.2,0,0.4,0,0.5,0
		c0.1,0,0.2,0,0.2,0c0.5,0.1,1,0.2,1.5,0.4c0.2,0.1,0.4,0.1,0.5,0.2c0.5,0.2,1,0.6,1.4,1v-35l2,6.6V129.3z M286.1,137.9
		c0,3.7-3,6.6-6.6,6.6c-3.7,0-6.6-3-6.6-6.6c0-3.6,3-6.6,6.6-6.6c1.7,0,3.3,0.7,4.5,1.8v-20.7l-13.5,11.7v29.4c0,3.7-3,6.6-6.6,6.6
		c-3.6,0-6.6-3-6.6-6.6c0-3.6,3-6.6,6.6-6.6c1.7,0,3.3,0.7,4.5,1.8V118l15.6-15.6h2.1V137.9z"/>
	<polygon class="st0" points="321.2,80.7 321.2,214.4 182.1,220.1 307.7,201.3 307.7,82.7 	"/>
	<polygon class="st0" points="70.6,136.5 75.1,137.3 75.1,197.9 50.1,194.3 50.1,75.6 70.6,78.5 	"/>
	<polygon class="st0" points="102.2,142.1 106.5,142.8 106.5,202.5 81.5,198.9 81.5,138.4 85.8,139.2 85.8,80.7 102.2,83.1 	"/>
	<polygon class="st0" points="133.7,147.6 137.9,148.4 137.9,207 112.9,203.4 112.9,144 117.2,144.7 117.2,85.3 133.7,87.7 	"/>
	<polygon class="st0" points="168.8,92.8 168.8,211.5 143.8,207.9 143.8,149.4 148.1,150.2 148.1,89.8 	"/>
	<polygon class="st0" points="27.9,80.7 27.9,214.4 167.1,220.1 41.5,201.3 41.5,82.7 	"/>
	<g>
		<polygon class="st0" points="75.1,137.3 75.1,198 50.1,194.3 50.1,75.6 70.6,78.5 70.6,136.5 		"/>
		<polygon class="st0" points="106.5,142.8 106.5,202.6 81.5,198.9 81.5,138.4 85.8,139.2 85.8,80.7 102.2,83.1 102.2,142.1 		"/>
		<polygon class="st0" points="137.9,148.4 137.9,207 112.9,203.4 112.9,144 117.2,144.7 117.2,85.3 133.7,87.7 133.7,147.6 		"/>
		<polygon class="st0" points="168.8,92.8 168.8,211.5 143.8,207.9 143.8,149.4 148.1,150.2 148.1,89.8 		"/>
	</g>
	<g>
		<g>
			<g>
				<path class="st0" d="M464,107.8c0.3,5.3-4.9,42.8-4.4,55c0.9,18.7,7.9,20.1,3.1,20.3c-4.7,0.3-13.1-7.7-13.8-23
					c-0.8-15.4,4.6-50.5,4.3-54.6C453,98.6,463.7,102.5,464,107.8z"/>
				<path class="st0" d="M517.2,146.2c-0.4,1.9-8.7,31-15.9,33.5c-0.3,0.2-0.8,0.3-1.4,0.3c-7.9,0-9.9-16.5-10.5-16.5
					c-0.7,0-3.9,12.8-10.6,12.8c-6.7,0-12.1-4.5-12.1-16.2c0-11.1,6.1-29.1,18.6-29.1c8.7,0,14.9,0,14.9,12.3c0,1.2-3,2.2-3,0.3
					c0-1.9-0.6-8.8-3.7-8.8c-8.3,0-15.6,15-15.6,30.6c0,3.1,0.3,8.2,2.9,8.2c2.5,0,7.9-17.6,7.9-22c0-1.7,0-4.7,5.1-4.7
					c5.1,0,7.3,2.4,7.3,4.1c0,0.5,0,0.9,0,1.4c0.3,5.7-0.3,21.9,2.5,21.9c1.8,0,11.1-26.7,11.6-28.5
					C515.7,144,517.7,144.1,517.2,146.2z"/>
				<path class="st0" d="M550.2,179.6c-1.9,0.3-5.7-8.5-18-6.9c-4.1,0.5-6.6,1.2-8.3,1.9c-1.6,1.1-3.3,1.8-5.1,1.8
					c-3.7,0-8.6-11.1-4-11.1c7.9,0,15.1-17.9,21.8-28.2c-5.5,0.6-11.9,0.8-17.1-0.4c-9.3-2.1-8.1-5.1,0.1-3.2
					c8.2,1.9,22.1-2.6,22.1-2.6l0.1,0.1c0.9-0.7,1.9-1.1,2.8-1.1c1.2,0,8.1,10.1,4.4,10.1c-6.3,0-12.2,18.2-19.7,28.9
					c0.8-0.2,1.7-0.3,2.7-0.5c11-1.4,15.9-0.9,18.9,2.4C551.9,171.8,552.1,179.4,550.2,179.6z"/>
				<path class="st0" d="M577.9,178.8c-4.9,0-8.6-3.1-3.9-3.1c10.5,0,9-38.1,6.1-38.1c-5.7,0-11.5,25.2-12.8,31.5
					c2.4,5.7,4.9,7.4,2.4,7.4c-12.8,0-15.6-16-15.6-31.9c0-10.9,3-30.9,3-31.6c0-0.6,0.1-1.9,1.8-1.9c1.6,0,9,2.5,9,5.6
					c0,3-3.4,17.8-3.4,36.6c0,4.9,0.6,8.8,1.4,11.8c1.4-8.7,5.8-27.2,9.2-30.5c2.7-2.8,9.2-1.2,10.3-0.4
					C596.2,141.3,596.6,178.8,577.9,178.8z"/>
				<path class="st0" d="M646.3,146.2c-0.4,1.9-8.7,31-15.9,33.5c-0.3,0.2-0.8,0.3-1.4,0.3c-7.9,0-9.9-16.5-10.5-16.5
					c-0.7,0-3.9,12.8-10.6,12.8c-6.7,0-12.1-4.5-12.1-16.2c0-11.1,6.1-29.1,18.6-29.1c8.7,0,14.9,0,14.9,12.3c0,1.2-3,2.2-3,0.3
					c0-1.9-0.6-8.8-3.7-8.8c-8.3,0-15.6,15-15.6,30.6c0,3.1,0.3,8.2,2.9,8.2c2.5,0,7.9-17.6,7.9-22c0-1.7,0-4.7,5.1-4.7
					c5.1,0,7.3,2.4,7.3,4.1c0,0.5,0,0.9,0,1.4c0.3,5.7-0.3,21.9,2.5,21.9c1.8,0,11.1-26.7,11.6-28.5
					C644.8,144,646.7,144.1,646.3,146.2z"/>
				<path class="st0" d="M666.6,149c0,12.9-4.3,27.6-15.4,27.6c-10,0-12.3-11.3-12.3-19.8c0-7.9,1.5-17.7,7.7-19.1
					c2-5.7,7.2-6.2,11.1-6.2C662.6,131.5,666.6,136.2,666.6,149z M657.1,136.6c-2.7,0-1.6,8.9-4.6,11.6c0.1,10.2-2.3,24,3,24
					C660.7,172.2,666.1,136.6,657.1,136.6z"/>
				<path class="st0" d="M706.3,162.9c0,12.7,1.6,12,1.6,14.4c0,2.4-12.7,0.7-12.7-13.6c0-9.4,1.8-20.6,3-27.1
					c-3.7,9.4-10.1,33.9-13.4,38.7c-0.1,0.4-0.3,0.7-0.7,0.8c-0.1,0-0.2,0-0.3,0c-0.3,0.1-0.6,0.2-1,0.2c-12.3,0-11.1-28.7-11.1-30
					c0-1.5-0.9-0.9-0.9-2.4c0-1.5,12.4-2.4,12.4,3.1c0,1.8-0.3,10.9-0.3,13.7c0,2.2,0.2,4.1,0.4,5.8c3.2-10.7,10.5-32.8,16.5-36.3
					c0.2-0.2,0.4-0.3,0.7-0.3c0.3-0.1,0.6-0.2,0.9-0.2c0.5,0,1,0,1.6,0.1c1.4,0,2.1,0.2,2.4,0.4c2.7,0.8,5.3,2.4,5.3,4.4
					C710.6,138.7,706.3,156.5,706.3,162.9z"/>
				<path class="st0" d="M712.1,121c0-4.3,3.6-4.1,7.9-4.1c4.1,0,8.6,5.1,8.6,8.3C728.6,132.8,712.1,125.2,712.1,121z M740,151.7
					c-1,4-7.9,23.9-13.8,23.9c-0.1,0-0.1,0-0.2,0c-11,0-12.3-15.8-12.3-23.6c0-9.8,0.9-13.3,0.9-15.4c0-3.7,10.6-0.4,10.6,3.8
					c0,3-0.5,8.1-0.5,11.7c0,9,1.8,14.7,3.2,17.9c3.5-1.9,9.5-16.3,10.1-18.5C738.7,149.4,740.3,150.3,740,151.7z"/>
				<path class="st0" d="M734.6,153.4c0-9.2,4.6-17.4,7.3-19.9c2.5-2.6,9.5-3.2,11.3-1.4c1.8,1.8,5.5,11.4,2.9,11.4
					c-2.6,0-3.5-7.4-5.1-7.4c-5.7,0-8.1,33.8-0.3,33.8c9.3,0,12.2-15.8,13.2-17.4c0.9-1.6,3.5-1.9,2.5,0
					c-0.9,1.9-5.7,23.7-17.9,23.7C740,176.1,734.6,164.8,734.6,153.4z"/>
				<path class="st0" d="M812.9,146.2c-0.4,1.9-8.7,31-15.9,33.5c-0.3,0.2-0.8,0.3-1.3,0.3c-7.9,0-9.9-16.5-10.5-16.5
					c-0.7,0-3.9,12.8-10.6,12.8c-6.7,0-12.1-4.5-12.1-16.2c0-11.1,6.1-29.1,18.6-29.1c8.7,0,14.9,0,14.9,12.3c0,1.2-3,2.2-3,0.3
					c0-1.9-0.6-8.8-3.7-8.8c-8.3,0-15.6,15-15.6,30.6c0,3.1,0.3,8.2,2.9,8.2c2.5,0,7.9-17.6,7.9-22c0-1.7,0-4.7,5.1-4.7
					c5.1,0,7.3,2.4,7.3,4.1c0,0.5,0,0.9,0,1.4c0.3,5.7-0.3,21.9,2.5,21.9c1.8,0,11.1-26.7,11.7-28.5
					C811.4,144,813.4,144.1,812.9,146.2z"/>
			</g>
		</g>
		<path class="st0" d="M410.5,117.7c-1.5,0.1-3.1,0.4-4.6,0.8c-0.5-4.7-0.9-9.3-1.1-14c15.1-11.1,28.7-23.6,22.4-35.3
			c-5.2-9.8-18.7-7.3-25-0.1c-7.1,9.1-6.5,22.4-5.4,33.4c-22,14.4-46.2,31-40.7,59.7c4.4,22.5,27.8,34.2,49.2,31.4
			c0.1,9.1-0.6,18.6-4.1,26.9c-4.2,9.8-16.7,16.3-26.1,8.9c-10.6-8.3-4.1-24.6,10.2-23.3c3.5,0.3,9.1,3.9,7.3,9
			c-0.9,2.6-2.4,3.7-5.9,3.2c2.2,2.1,7.3,1.9,8.4-3.3c1.9-8.7-6.7-14-12.9-13.4c-19.4,1.8-22.3,27.9-6.2,35.4
			c8.7,4.1,25.6,0.5,31.7-13.5c4-9.2,4.9-21,4.8-31.5c5.4-1.6,10.6-4.2,15.1-7.9C452.6,163.3,449.3,114.3,410.5,117.7z M404.4,94.9
			c-0.1-6.9-1.7-16,6-19.5c4.5-2.1,11.6,0.5,10.1,6.7c-1.3,5.4-7.1,9.1-11.3,12.1c-1.5,1.1-3.1,2.2-4.8,3.3
			C404.4,96.5,404.4,95.7,404.4,94.9z M374.9,127.2c3.9-4.8,13-10.8,22.6-17.6c0.4,3.8,0.9,7.6,1.3,11.3c-8,3.8-14.9,10.4-17.5,18.5
			c-0.8,2.2-3,9.7-0.2,21.6c0.6-7.2,2-17.4,3-19.7c2.6-6.6,8.4-12.3,15.2-15.6c2.3,19,4.5,38.1,5.5,57.3c-0.4,0-0.8,0.1-1.2,0.1
			C376.1,184.3,353.3,154.1,374.9,127.2z M412.1,181.6c-0.2-3.4-0.4-6.5-0.5-8.9c-0.8-16.4-3.4-32.9-5.3-49.3
			c2.8-0.6,5.7-0.9,8.4-0.6C448.8,126.5,439.7,172.4,412.1,181.6z"/>
	</g>
</g>
</svg>
